<?xml version="1.0" standalone="no"?>
<!DOCTYPE svg PUBLIC "-//W3C//DTD SVG 20010904//EN"
 "http://www.w3.org/TR/2001/REC-SVG-20010904/DTD/svg10.dtd">
<svg version="1.0" xmlns="http://www.w3.org/2000/svg"
 width="700.000000pt" height="700.000000pt" viewBox="0 0 700.000000 700.000000"
 preserveAspectRatio="xMidYMid meet">
<metadata>
Created by potrace 1.14, written by Peter Selinger 2001-2017
</metadata>
<g transform="translate(0.000000,700.000000) scale(0.100000,-0.100000)"
fill="#000000" stroke="none">
<path d="M3273 5094 c-269 -45 -490 -207 -611 -449 -168 -336 -83 -744 205
-990 121 -103 254 -164 414 -188 l76 -12 -169 -135 c-93 -74 -180 -143 -191
-154 -12 -10 -38 -30 -57 -45 -19 -14 -41 -32 -48 -38 -17 -16 -29 -16 -38 -2
-15 24 -86 47 -132 42 -87 -9 -147 -82 -144 -178 7 -345 225 -647 548 -759
114 -40 185 -48 429 -48 323 -1 405 14 567 100 222 117 389 358 424 607 51
363 -148 722 -483 870 -69 31 -195 65 -246 67 -21 1 -37 4 -37 7 0 3 69 60
152 126 83 66 156 125 162 130 6 6 36 29 66 52 30 23 64 50 75 61 20 19 20 19
50 -4 47 -35 106 -46 155 -29 81 27 119 95 113 205 -11 199 -108 406 -252 541
-103 96 -148 126 -251 169 -57 24 -90 33 -190 56 -51 12 -516 10 -587 -2z"/>
</g>
</svg>
