<?xml version="1.0" standalone="no"?>
        <!DOCTYPE svg PUBLIC "-//W3C//DTD SVG 1.1//EN" 
        "http://www.w3.org/Graphics/SVG/1.1/DTD/svg11.dtd"><svg id="changeColor" fill="#DC7633" xmlns="http://www.w3.org/2000/svg" xmlns:xlink="http://www.w3.org/1999/xlink" width="173" zoomAndPan="magnify" viewBox="0 0 375 374.9999" height="173" version="1.0"><defs><path id="pathAttribute" d="M 11.972656 11.972656 L 359.222656 11.972656 L 359.222656 359.222656 L 11.972656 359.222656 Z M 11.972656 11.972656 " filter="url(#bgShadow)" stroke-width="7.3" stroke="#0617f9"><filter id="bgShadow"><feDropShadow id="bgShadowValue" stdDeviation="16.5" dx="0" dy="0" flood-color="#170acd"></feDropShadow></filter></path></defs><g><path id="pathAttribute" d="M 185.597656 359.222656 C 89.675781 359.222656 11.972656 280.984375 11.972656 185.597656 C 11.972656 90.210938 89.675781 11.972656 185.597656 11.972656 C 281.519531 11.972656 359.222656 89.675781 359.222656 185.597656 C 359.222656 281.519531 280.984375 359.222656 185.597656 359.222656 Z M 185.597656 22.691406 C 95.570312 22.691406 22.691406 95.570312 22.691406 185.597656 C 22.691406 275.625 95.570312 348.503906 185.597656 348.503906 C 275.625 348.503906 348.503906 275.625 348.503906 185.597656 C 348.503906 95.570312 275.089844 22.691406 185.597656 22.691406 Z M 185.597656 22.691406 " fill-opacity="1" fill-rule="nonzero" filter="url(#bgShadow)" stroke-width="7.3" stroke="#0617f9"></path></g><g id="inner-icon" transform="translate(85, 75)"> <svg xmlns="http://www.w3.org/2000/svg" class="icon icon-tabler icon-tabler-letter-s" width="212" height="212" viewBox="0 0 24 24" stroke-width="2" stroke="currentColor" fill="none" stroke-linecap="round" stroke-linejoin="round" id="IconChangeColor" transform="scale(-1, 1)"> <path stroke="#072eed" d="M0 0h24v24H0z" fill="#000000" id="mainIconPathAttribute" stroke-width="1.3" filter="url(#shadow)"></path> <path d="M17 8a4 4 0 0 0 -4 -4h-2a4 4 0 0 0 0 8h2a4 4 0 0 1 0 8h-2a4 4 0 0 1 -4 -4" id="mainIconPathAttribute" stroke="#072eed" fill="#000000"></path> <animateTransform href="#IconChangeColor" attributeType="xml" attributeName="transform" type="rotate" from="0" to="359" dur="2s" repeatCount="indefinite"></animateTransform><filter id="shadow"><feDropShadow id="shadowValue" stdDeviation="0.5" dx="1.5" dy="0.9" flood-color="black"></feDropShadow></filter><filter id="shadow"><feDropShadow id="shadowValue" stdDeviation=".5" dx="0" dy="0" flood-color="black"></feDropShadow></filter></svg> </g></svg>